<svg xmlns="http://www.w3.org/2000/svg" version="1.1" xmlns:xlink="http://www.w3.org/1999/xlink" xmlns:svgjs="http://svgjs.dev/svgjs" width="2000" height="4574" viewBox="0 0 2000 4574"><g transform="matrix(1,0,0,1,2.5370379725462726,1.8518218623480607)"><svg viewBox="0 0 108 247" data-background-color="#61777f" preserveAspectRatio="xMidYMid meet" height="4574" width="2000" xmlns="http://www.w3.org/2000/svg" xmlns:xlink="http://www.w3.org/1999/xlink"><g id="tight-bounds" transform="matrix(1,0,0,1,-0.13699994948251515,-0.09999999999999432)"><svg viewBox="0 0 108.27359999999997 247.2" height="247.2" width="108.27359999999997"><g><svg></svg></g><g><svg viewBox="0 0 108.27359999999997 247.2" height="247.2" width="108.27359999999997"><g transform="matrix(1,0,0,1,0,47.215199999999996)"><svg viewBox="0 0 108.27359999999997 152.7696" height="152.7696" width="108.27359999999997"><g><svg viewBox="0 0 108.27359999999997 152.7696" height="152.7696" width="108.27359999999997"><g><svg viewBox="0 0 108.2736 152.76960000000003" height="152.7696" width="108.27359999999997"><g><svg viewBox="0 0 108.2736 152.76960000000003" height="152.76960000000003" width="108.2736"><g id="textblocktransform"><svg viewBox="0 0 108.2736 152.76960000000003" height="152.76960000000003" width="108.2736" id="textblock"><g><svg viewBox="0 0 108.2736 152.76960000000003" height="152.76960000000003" width="108.2736"><g transform="matrix(1,0,0,1,0,0)"><svg width="108.2736" viewBox="0.8500000238418579 -35.29999923706055 25.549999237060547 36.04999923706055" height="152.76960000000003" data-palette-color="#000000"><path d="M14-35.3Q17.65-35.3 20.35-34.25 23.05-33.2 25.4-31.05L25.4-31.05 22.15-27.3Q20.3-28.85 18.43-29.55 16.55-30.25 14.4-30.25L14.4-30.25Q12-30.25 10.53-29.18 9.05-28.1 9.05-26.15L9.05-26.15Q9.05-24.85 9.63-24 10.2-23.15 11.7-22.4 13.2-21.65 16.15-20.75L16.15-20.75Q21.25-19.15 23.83-16.78 26.4-14.4 26.4-9.85L26.4-9.85Q26.4-6.75 24.83-4.35 23.25-1.95 20.3-0.6 17.35 0.75 13.3 0.75L13.3 0.75Q9.35 0.75 6.23-0.53 3.1-1.8 0.85-4L0.85-4 4.25-7.8Q6.25-6.1 8.4-5.23 10.55-4.35 13.15-4.35L13.15-4.35Q16-4.35 17.75-5.7 19.5-7.05 19.5-9.5L19.5-9.5Q19.5-11 18.9-11.98 18.3-12.95 16.85-13.73 15.4-14.5 12.65-15.35L12.65-15.35Q7.15-17.05 4.7-19.45 2.25-21.85 2.25-25.75L2.25-25.75Q2.25-28.6 3.75-30.75 5.25-32.9 7.93-34.1 10.6-35.3 14-35.3L14-35.3Z" opacity="1" transform="matrix(1,0,0,1,0,0)" fill="#000000" class="undefined-text-0" data-fill-palette-color="primary" id="text-0"></path></svg></g></svg></g></svg></g></svg></g><g></g></svg></g></svg></g></svg></g><path d="M0 41.215L0 1 108.274 1 108.274 41.215 94.497 41.215 94.497 14.777 13.777 14.777 13.777 41.215 0 41.215M0 205.985L0 246.2 108.274 246.2 108.274 205.985 94.497 205.985 94.497 232.423 13.777 232.423 13.777 205.985 0 205.985" fill="#000000" stroke="transparent" data-fill-palette-color="primary"></path></svg></g><defs></defs></svg><rect width="108.27359999999997" height="247.2" fill="none" stroke="none" visibility="hidden"></rect></g></svg></g></svg>